<svg xmlns="http://www.w3.org/2000/svg" xmlns:xlink="http://www.w3.org/1999/xlink" width="149.576" height="44.083" viewBox="0 0 149.576 44.083">
  <defs>
    <clipPath id="clip-path">
      <path id="Path_1301" data-name="Path 1301" d="M204.419,424.776,179.8,400.157a2.811,2.811,0,0,0-3.976,0L151.2,424.779a5.624,5.624,0,0,0,.214,8.157l10.04,9.036a5.625,5.625,0,0,0,7.424.09l5.275-4.521a5.619,5.619,0,0,1,7.314,0l5.274,4.521a5.626,5.626,0,0,0,7.424-.09l10.036-9.033A5.628,5.628,0,0,0,204.419,424.776Z" transform="translate(-149.555 -399.333)" fill="#8b72fc"/>
    </clipPath>
  </defs>
  <g id="Group_449" data-name="Group 449" transform="translate(-149.555 -399.333)">
    <text id="techrity" transform="translate(214.13 429.847)" font-size="22" font-family="Poppins-Medium, Poppins" font-weight="500"><tspan x="0" y="0">techrity</tspan></text>
    <g id="Group_448" data-name="Group 448" transform="translate(149.555 399.333)">
      <path id="Path_1294" data-name="Path 1294" d="M204.419,424.776,179.8,400.157a2.811,2.811,0,0,0-3.976,0L151.2,424.779a5.624,5.624,0,0,0,.214,8.157l10.04,9.036a5.625,5.625,0,0,0,7.424.09l5.275-4.521a5.619,5.619,0,0,1,7.314,0l5.274,4.521a5.626,5.626,0,0,0,7.424-.09l10.036-9.033A5.628,5.628,0,0,0,204.419,424.776Z" transform="translate(-149.555 -399.333)" fill="#8b72fc"/>
      <g id="Group_447" data-name="Group 447" clip-path="url(#clip-path)">
        <g id="Group_445" data-name="Group 445" transform="translate(21.26 5.679)">
          <path id="Path_1295" data-name="Path 1295" d="M266.5,442.931c.257-2.157.7-2.659.707-3.528.009-1.544-1.377-3.019-2.539-3.67-2.142-1.2-5.879-.253-13.266,1.69a5.584,5.584,0,0,1-2.4.14,5.489,5.489,0,0,1-2.822-1.412,100.408,100.408,0,0,0,12.137-3.948c3.968-1.576,8.7-5.4,11.785-7.062,1.976.659,2.751,3.444,4.727,4.1l-2.541,3.386a46.893,46.893,0,0,0-4.237,12.7,1.709,1.709,0,0,1-1.27-.424C266.387,444.5,266.379,443.908,266.5,442.931Z" transform="translate(-246.176 -425.142)" fill="#fff"/>
          <path id="Path_1296" data-name="Path 1296" d="M282.767,481.221a2.511,2.511,0,0,0,1.27.424c.916.031,1.646-.527,2.964-1.834.821-.814,1.847-1.895,2.965-3.245a5.688,5.688,0,0,0-2.964.422Z" transform="translate(-274.716 -465.217)" fill="#fff"/>
          <path id="Path_1297" data-name="Path 1297" d="M257.754,485.949a10.025,10.025,0,0,0,1.214-.064,11.506,11.506,0,0,0,1.75-.359,13.4,13.4,0,0,0,4.093-2.4l-4.516.845a3.651,3.651,0,0,0-1.694.846A3.614,3.614,0,0,0,257.754,485.949Z" transform="translate(-255.206 -470.37)" fill="#fff"/>
        </g>
        <g id="Group_446" data-name="Group 446" transform="translate(3.446 26.229)">
          <path id="Path_1298" data-name="Path 1298" d="M171.008,520.677c.127,2.168-.223,2.74-.075,3.6.263,1.521,1.887,2.73,3.145,3.166,2.32.8,5.832-.786,12.761-4a5.584,5.584,0,0,1,2.337-.56,5.486,5.486,0,0,1,3.026.894,100.358,100.358,0,0,0-11.254,6.021c-3.629,2.25-7.615,6.845-10.359,9.025-2.061-.3-3.314-2.906-5.375-3.208l1.906-3.78a46.905,46.905,0,0,0,1.937-13.247,1.71,1.71,0,0,1,1.325.194C170.838,519.11,170.95,519.7,171.008,520.677Z" transform="translate(-165.215 -518.536)" fill="#fff"/>
          <path id="Path_1299" data-name="Path 1299" d="M225.638,525.677a2.513,2.513,0,0,0-1.325-.194c-.908.131-1.528.808-2.6,2.327-.665.946-1.485,2.19-2.347,3.716a5.686,5.686,0,0,0,2.843-.937Z" transform="translate(-207.455 -523.937)" fill="#fff"/>
          <path id="Path_1300" data-name="Path 1300" d="M249.951,523.944a9.994,9.994,0,0,0-1.184.276,11.506,11.506,0,0,0-1.659.661,13.407,13.407,0,0,0-3.607,3.08l4.3-1.626a3.652,3.652,0,0,0,1.518-1.131A3.609,3.609,0,0,0,249.951,523.944Z" transform="translate(-226.275 -522.754)" fill="#fff"/>
        </g>
      </g>
    </g>
  </g>
</svg>
